<svg id="_x33_0" enable-background="new 0 0 64 64" height="512" viewBox="0 0 64 64" width="512" xmlns="http://www.w3.org/2000/svg"><g><g><g><path d="m22.14 52.29 3.86 7.71-4-1-3 3-3.17-9.17c.78.75 1.82 1.17 2.9 1.17.83 0 1.64-.24 2.32-.7l.07-.05c.4-.26.74-.59 1.02-.96z" fill="#b4dd7f"/></g><g><path d="m11.27 54c1.06 0 2.07-.4 2.9-1.17l-3.17 9.17-3-3-4 1 3.86-7.71c.28.37.62.7 1.02.96l.07.05c.68.46 1.49.7 2.32.7z" fill="#b4dd7f"/></g><g><path d="m25.65 48.54c1.53-1.32 1.57-1.37 1.6-1.42l.05-.07c.22-.33.39-.68.5-1.05h17.4l-11.2 10z" fill="#ff826e"/></g><g><path d="m8.95 28.7-.07.05c-.47.31-.86.7-1.16 1.15-1.12-2.61-1.72-5.45-1.72-8.35v-.01c0-6.63 3.12-12.88 8.43-16.86 1.16-.87 2.44-1.54 3.8-1.99 1.35-.45 2.78-.69 4.23-.69 1.78 0 3.51.35 5.12 1.02 1.61.66 3.08 1.64 4.34 2.9l2.08 2.08 2.08-2.08c2.51-2.51 5.91-3.92 9.46-3.92 1.45 0 2.88.24 4.23.69 1.36.45 2.64 1.12 3.8 1.99 2.65 1.99 4.76 4.55 6.21 7.44 1.44 2.88 2.22 6.1 2.22 9.42v.01c0 5.41-2.07 10.58-5.75 14.48-.08-.02-.16-.03-.25-.03h-28.2c-.11-.37-.28-.72-.5-1.05l-.05-.07c-.78-1.18-2.1-1.88-3.5-1.88-.28 0-.56.03-.83.08.05-.27.08-.55.08-.83 0-1.4-.7-2.72-1.88-3.5l-.07-.05c-.68-.46-1.49-.7-2.32-.7-1.11 0-2.17.44-2.96 1.23l-.77.77-.77-.77c-.79-.79-1.85-1.23-2.96-1.23-.83 0-1.64.24-2.32.7z" fill="#ff826e"/></g><g><path d="m56.25 36.03c.43.11.75.51.75.97v8c0 .55-.45 1-1 1h-10.8-17.4c.13-.41.2-.84.2-1.27 0-1.11-.44-2.17-1.23-2.96l-.77-.77.77-.77c.79-.79 1.23-1.85 1.23-2.96 0-.43-.07-.86-.2-1.27h28.2c.09 0 .17.01.25.03z" fill="#ffeaa7"/></g><g><path d="m26 41 .77-.77c.79-.79 1.23-1.85 1.23-2.96 0-.43-.07-.86-.2-1.27-.11-.37-.28-.72-.5-1.05l-.05-.07c-.78-1.18-2.1-1.88-3.5-1.88-.28 0-.56.03-.83.08.05-.27.08-.55.08-.83 0-1.4-.7-2.72-1.88-3.5l-.07-.05c-.68-.46-1.49-.7-2.32-.7-1.11 0-2.17.44-2.96 1.23l-.77.77-.77-.77c-.79-.79-1.85-1.23-2.96-1.23-.83 0-1.64.24-2.32.7l-.07.05c-.47.31-.86.7-1.16 1.15-.46.68-.72 1.5-.72 2.35 0 .28.03.56.08.83-.27-.05-.55-.08-.83-.08-1.4 0-2.72.7-3.5 1.88l-.05.07c-.46.68-.7 1.49-.7 2.32 0 1.11.44 2.17 1.23 2.96l.77.77-.77.77c-.79.79-1.23 1.85-1.23 2.96 0 .83.24 1.64.7 2.32l.05.07c.78 1.18 2.1 1.88 3.5 1.88.28 0 .56-.03.83-.08-.05.27-.08.55-.08.83 0 .93.31 1.82.86 2.54.28.37.62.7 1.02.96l.07.05c.68.46 1.49.7 2.32.7 1.06 0 2.07-.4 2.9-1.17.02-.02.04-.04.06-.06l.77-.77.77.77.06.06c.78.75 1.82 1.17 2.9 1.17.83 0 1.64-.24 2.32-.7l.07-.05c.4-.26.74-.59 1.02-.96.55-.72.86-1.61.86-2.54 0-.28-.03-.56-.08-.83.27.05.55.08.83.08.67 0 1.32-.16 1.9-.46 1.53-1.32 1.57-1.37 1.6-1.42l.05-.07c.22-.33.39-.68.5-1.05.13-.41.2-.84.2-1.27 0-1.11-.44-2.17-1.23-2.96z" fill="#fcd770"/></g><g><path d="m12.59 36c.9 0 1.77.36 2.41 1 .64-.64 1.51-1 2.41-1h.18c.9 0 1.77.36 2.41 1s1 1.51 1 2.41c0 1.01-.45 1.96-1.22 2.61l-2.6 2.16-2.18 1.82-3.27-2.73-1.51-1.25c-.77-.65-1.22-1.6-1.22-2.61 0-.9.36-1.77 1-2.41.35-.35.76-.61 1.22-.78.38-.15.78-.22 1.19-.22z" fill="#ffeaa7"/></g></g><g><path d="m63 21.541c0-6.914-3.302-13.518-8.833-17.666-2.473-1.854-5.536-2.875-8.626-2.875-3.84 0-7.451 1.496-10.166 4.211l-1.375 1.375-1.375-1.375c-2.715-2.715-6.326-4.211-10.166-4.211-3.09 0-6.153 1.021-8.626 2.875-5.531 4.148-8.833 10.752-8.833 17.676 0 2.85.545 5.625 1.608 8.259-.357.672-.557 1.424-.593 2.205-1.654.076-3.175.923-4.144 2.377-.57.854-.871 1.849-.871 2.875 0 1.385.539 2.687 1.519 3.666l.067.067-.067.067c-.98.979-1.519 2.281-1.519 3.666 0 1.026.301 2.021.917 2.946.925 1.386 2.444 2.23 4.098 2.306.039.84.276 1.644.694 2.361l-4.575 9.152 5.56-1.39 3.73 3.73 3.576-10.354 3.577 10.353 3.73-3.73 5.56 1.39-4.572-9.146c.413-.713.652-1.521.691-2.367.504-.023.995-.117 1.462-.281l8.552 7.638 11.582-10.341h10.418c1.103 0 2-.897 2-2v-8c0-.404-.122-.778-.329-1.093 3.431-4.004 5.329-9.052 5.329-14.366zm-47.967-16.065c2.129-1.597 4.766-2.476 7.426-2.476 3.306 0 6.414 1.288 8.752 3.625l2.789 2.789 2.789-2.789c2.338-2.337 5.446-3.625 8.752-3.625 2.66 0 5.297.879 7.426 2.475 5.03 3.773 8.033 9.778 8.033 16.076 0 4.998-1.846 9.749-5.183 13.449h-27.346c-.112-.23-.24-.457-.388-.679-.922-1.382-2.468-2.217-4.097-2.299-.074-1.656-.922-3.181-2.377-4.151-.855-.57-1.85-.871-2.876-.871-1.385 0-2.687.539-3.666 1.519l-.067.067-.067-.067c-1.704-1.705-4.438-2.049-6.612-.602-.074.05-.141.108-.212.161-.724-2.101-1.109-4.288-1.109-6.537 0-6.288 3.003-12.293 8.033-16.065zm11.034 37.005c.593.593.933 1.414.933 2.252 0 .631-.185 1.242-.581 1.836-.598.896-1.597 1.431-2.674 1.431-.858 0-1.665-.334-2.272-.941l-2.81-2.81 1.754-1.461c1.006-.838 1.583-2.07 1.583-3.38 0-.833-.241-1.626-.674-2.319l1.147-1.147c.554-.554.951-1.217 1.207-1.934 1.081-.019 2.13.511 2.786 1.493.349.524.534 1.135.534 1.766 0 .838-.34 1.659-.933 2.251l-1.481 1.482zm-4.067 7.264c0 1.077-.535 2.076-1.5 2.72-1.223.813-2.979.641-4.019-.398l-1.481-1.481-1.481 1.481c-1.04 1.039-2.704 1.273-4.087.352-.897-.598-1.432-1.597-1.432-2.674 0-.858.334-1.665.941-2.272l2.848-2.848 3.211 2.677 2.121-1.767 2.939 2.939c.554.554 1.217.951 1.934 1.207 0 .021.006.042.006.064zm-12.059-16.218c-.554-.554-1.217-.951-1.934-1.207-.001-.022-.007-.043-.007-.065 0-1.077.535-2.076 1.5-2.72 1.224-.814 2.979-.641 4.019.398l1.481 1.481 1.481-1.481c1.039-1.039 2.705-1.273 4.087-.352.897.598 1.432 1.597 1.432 2.674 0 .858-.334 1.665-.941 2.272l-1.146 1.146c-.691-.432-1.486-.673-2.321-.673h-.185c-.867 0-1.697.25-2.407.716-.709-.466-1.539-.716-2.408-.716h-.185c-.306 0-.606.034-.899.095zm.77 4.176c.454-.453 1.056-.703 1.697-.703h.185c.641 0 1.243.25 1.701.707l.711.703.707-.707c.453-.453 1.055-.703 1.696-.703h.185c.641 0 1.243.25 1.705.711.452.454.702 1.056.702 1.697 0 .714-.314 1.386-.863 1.843l-4.137 3.447-4.137-3.448c-.549-.456-.863-1.128-.863-1.842 0-.641.25-1.243.711-1.705zm-7.176 8.797c-.35-.525-.535-1.136-.535-1.767 0-.838.34-1.659.933-2.251l1.481-1.482-1.481-1.481c-.593-.593-.933-1.414-.933-2.252 0-.631.185-1.242.581-1.836.598-.896 1.597-1.431 2.674-1.431.858 0 1.665.334 2.272.941l1.088 1.088c-.109.09-.225.167-.326.269-.831.83-1.289 1.935-1.289 3.11 0 1.31.577 2.542 1.583 3.379l.663.553-2.719 2.719c-.554.554-.951 1.217-1.207 1.934-1.081.02-2.13-.511-2.785-1.493zm7.042 13.663-2.27-2.27-2.44.61 2.279-4.559c.082.062.159.128.246.186.854.569 1.849.87 2.875.87.389 0 .769-.053 1.14-.136zm11.116-2.27-2.27 2.27-1.83-5.299c.371.083.75.136 1.14.136 1.026 0 2.021-.301 2.946-.917.062-.042.117-.091.177-.135l2.277 4.554zm12.307-3.234-6.749-6.026c.326-.298.622-.64.878-1.025.13-.195.242-.4.344-.608h14.105zm22-9.659h-27.02c.005-.089.02-.177.02-.267 0-1.385-.539-2.687-1.519-3.666l-.067-.067.067-.067c.98-.979 1.519-2.281 1.519-3.666 0-.09-.015-.178-.02-.267h27.02z"/><path d="m55 21.541c0 2.072-.468 4.158-1.353 6.032l1.809.854c1.01-2.14 1.544-4.521 1.544-6.886 0-5.035-2.404-9.844-6.432-12.865-1.29-.967-2.89-1.557-4.505-1.66l-.127 1.996c1.231.078 2.45.527 3.432 1.263 3.527 2.646 5.632 6.857 5.632 11.266z"/></g></g></svg>